<svg id="Capa_1" enable-background="new 0 0 512 512" height="512" viewBox="0 0 512 512" width="512" xmlns="http://www.w3.org/2000/svg"><g><g><path d="m459.043 214.583-45.457 80.813h28.285c-20.203 102.026-148.494 92.935-148.494 92.935l-12.993-183.85h56.43v-32.325h-58.714l-4.926-59.6h-34.346l-4.926 59.6h-58.714v32.325h56.43l-12.993 183.85s-128.291 9.091-148.494-92.935h28.285l-45.457-80.813-45.459 80.813h28.285c19.193 159.606 183.85 163.646 183.85 163.646l36.365 45.458 36.366-45.457s164.656-4.041 183.85-163.646h28.284z" fill="#80b4fb"/></g><g><path d="m325.551 387.124c-18.792 2.151-32.175 1.208-32.175 1.208l-11.818-167.227c-8.157-2.182-16.723-3.352-25.558-3.352s-17.401 1.17-25.558 3.352l-11.818 167.227s-13.383.943-32.175-1.208c17.892 17.685 42.467 28.621 69.551 28.621s51.659-10.937 69.551-28.621z" fill="#61a2f9"/></g><g><g><path d="m459.043 214.583-10.102 17.959 35.356 62.854h20.203z" fill="#61a2f9"/></g><g><path d="m454.806 303.893c-22.174 136.576-162.44 155.149-162.44 155.149s164.656-4.041 183.85-163.646h-11.443c-4.958 0-9.173 3.604-9.967 8.497z" fill="#61a2f9"/></g></g><g><path d="m295.396 188.319c0 5.625.857 11.053 2.445 16.163h38.972v-32.325h-38.972c-1.588 5.109-2.445 10.537-2.445 16.162z" fill="#61a2f9"/></g><g><path d="m216.604 188.319c0 5.625-.857 11.053-2.445 16.163h-38.972v-32.325h38.972c1.588 5.109 2.445 10.537 2.445 16.162z" fill="#61a2f9"/></g><g><path d="m278.099 172.157-4.926-59.6h-34.346l-2.967 35.898c3.855 1.565 11.077 2.146 15.743 2.361 2.525.117 4.572 2.091 4.797 4.609l.673 7.528c.465 5.21 4.831 9.203 10.062 9.203h10.964z" fill="#61a2f9"/></g><g><path d="m256 7.5c-33.474 0-60.61 27.136-60.61 60.61s27.136 60.61 60.61 60.61 60.61-27.136 60.61-60.61-27.136-60.61-60.61-60.61zm0 88.894c-15.621 0-28.285-12.664-28.285-28.285s12.663-28.285 28.285-28.285c15.621 0 28.285 12.663 28.285 28.285s-12.664 28.285-28.285 28.285z" fill="#e4f6ff"/></g><g><path d="m289.745 17.76c6.478 9.646 10.26 21.253 10.26 33.745 0 33.474-27.136 60.61-60.61 60.61-12.492 0-24.099-3.782-33.745-10.26 10.88 16.201 29.368 26.864 50.35 26.864 33.474 0 60.61-27.136 60.61-60.61 0-20.981-10.664-39.469-26.865-50.349z" fill="#b9e4ef"/></g><g><circle cx="349.945" cy="188.319" fill="#e4f6ff" r="32.325"/></g><g><path d="m364.37 159.392c2.17 4.343 3.398 9.239 3.398 14.424 0 17.853-14.473 32.325-32.325 32.325-5.185 0-10.081-1.228-14.424-3.398 5.301 10.61 16.26 17.901 28.927 17.901 17.853 0 32.325-14.473 32.325-32.325-.001-12.667-7.291-23.626-17.901-28.927z" fill="#b9e4ef"/></g><g><circle cx="162.055" cy="188.319" fill="#e4f6ff" r="32.325"/></g><g><path d="m176.479 159.392c2.17 4.343 3.398 9.239 3.398 14.424 0 17.853-14.473 32.325-32.325 32.325-5.185 0-10.081-1.228-14.424-3.398 5.301 10.61 16.26 17.901 28.927 17.901 17.853 0 32.325-14.473 32.325-32.325 0-12.667-7.29-23.626-17.901-28.927z" fill="#b9e4ef"/></g><g><circle cx="256" cy="316.749" fill="#ffe07d" r="74.752"/></g><g><path d="m300.97 257.04c9.44 12.514 15.043 28.086 15.043 44.97 0 41.284-33.468 74.752-74.752 74.752-16.884 0-32.456-5.603-44.97-15.043 13.643 18.086 35.308 29.782 59.709 29.782 41.284 0 74.752-33.468 74.752-74.752 0-24.4-11.695-46.065-29.782-59.709z" fill="#ffd064"/></g><g><path d="m511.036 291.724-45.459-80.82c-1.329-2.362-3.828-3.823-6.538-3.823-2.709 0-5.208 1.462-6.537 3.823l-45.45 80.821c-1.306 2.322-1.282 5.163.063 7.463s3.809 3.713 6.474 3.713h18.771c-2.777 9.766-6.8 18.709-12.009 26.675-2.267 3.467-1.294 8.115 2.173 10.382 3.468 2.268 8.115 1.293 10.381-2.173 7.82-11.961 13.311-25.731 16.32-40.927.436-2.202-.137-4.483-1.562-6.218-1.424-1.734-3.551-2.739-5.795-2.739h-15.458l32.628-58.02 32.636 58.02h-15.454c-3.795 0-6.993 2.836-7.446 6.604-7.614 63.293-39.396 108.909-94.464 135.582-41.642 20.169-81.73 21.445-82.124 21.455-2.213.055-4.289 1.084-5.672 2.812l-30.514 38.14-30.514-38.14c-1.38-1.725-3.458-2.754-5.666-2.812-.4-.01-40.489-1.286-82.131-21.455-55.067-26.673-86.85-72.289-94.464-135.582-.453-3.769-3.651-6.604-7.446-6.604h-15.455l32.636-58.02 32.628 58.02h-15.458c-2.245 0-4.371 1.005-5.795 2.739-1.425 1.734-1.998 4.016-1.562 6.218 8.831 44.603 38.916 75.877 87.003 90.443 35.513 10.758 68.009 8.606 69.374 8.511 2.26-.16 4.235-1.318 5.502-3.034 9.668 4.001 20.252 6.222 31.348 6.222s21.68-2.221 31.348-6.222c1.266 1.716 3.242 2.874 5.502 3.034.567.04 3.786.25 8.95.25 19.883 0 68.567-3.11 105.441-30.967 3.305-2.497 3.96-7.2 1.463-10.505s-7.2-3.962-10.505-1.464c-29.997 22.661-70.173 27.077-90.809 27.775 18.795-15.087 30.86-38.23 30.86-64.151 0-33.009-19.555-61.521-47.681-74.606l-2.134-30.163h29.5c7.262 9.798 18.906 16.163 32.01 16.163 21.959 0 39.825-17.865 39.825-39.825s-17.866-39.825-39.825-39.825c-13.106 0-24.751 6.366-32.012 16.166h-32.927l-2.784-33.697c24.576-10.291 41.888-34.586 41.888-62.853 0-37.556-30.554-68.11-68.11-68.11-16.24 0-31.969 5.812-44.289 16.363-3.146 2.694-3.512 7.43-.817 10.575 2.695 3.146 7.429 3.511 10.575.817 9.603-8.225 21.867-12.755 34.531-12.755 29.285 0 53.11 23.825 53.11 53.11 0 29.284-23.825 53.109-53.11 53.109s-53.11-23.825-53.11-53.109c0-5.062.709-10.062 2.109-14.859 1.16-3.976-1.123-8.14-5.099-9.301-3.975-1.156-8.141 1.123-9.301 5.1-1.798 6.162-2.71 12.575-2.71 19.061 0 28.267 17.312 52.562 41.888 62.853l-2.784 33.697h-32.927c-7.262-9.8-18.906-16.166-32.012-16.166-21.959 0-39.825 17.865-39.825 39.825s17.866 39.825 39.825 39.825c13.105 0 24.748-6.365 32.01-16.163h29.5l-2.133 30.145c-6.261 2.894-12.171 6.571-17.556 10.983-3.204 2.625-3.673 7.351-1.048 10.555 2.625 3.203 7.351 3.673 10.555 1.047 11.972-9.81 27.107-15.212 42.618-15.212 37.082 0 67.25 30.168 67.25 67.25s-30.168 67.25-67.25 67.25-67.25-30.168-67.25-67.25c0-9.479 1.926-18.626 5.726-27.188 1.68-3.786-.027-8.218-3.813-9.897-3.785-1.679-8.217.027-9.897 3.813-4.655 10.49-7.015 21.685-7.015 33.272 0 25.934 12.078 49.088 30.889 64.174-12.2-.391-31.238-2.088-50.907-8.099-39.478-12.066-64.365-35.569-74.1-69.925h18.777c2.665 0 5.129-1.413 6.474-3.713 1.346-2.3 1.37-5.141.063-7.463l-45.45-80.821c-1.328-2.361-3.827-3.823-6.537-3.823-2.709 0-5.208 1.462-6.537 3.823l-45.459 80.82c-1.307 2.322-1.283 5.163.062 7.463s3.81 3.714 6.474 3.714h21.721c5.205 34.997 17.809 65.27 37.514 90.065 16.755 21.086 38.597 38.198 64.918 50.862 37.581 18.082 73.049 21.789 84.227 22.53l34.264 42.827c1.423 1.779 3.578 2.814 5.856 2.814s4.433-1.035 5.856-2.814l34.264-42.827c11.178-.741 46.645-4.448 84.227-22.53 26.321-12.664 48.163-29.776 64.918-50.862 19.705-24.796 32.309-55.068 37.514-90.065h21.721c2.665 0 5.129-1.414 6.474-3.714s1.369-5.14.062-7.462zm-161.091-128.23c13.688 0 24.825 11.137 24.825 24.825s-11.137 24.825-24.825 24.825-24.825-11.137-24.825-24.825 11.137-24.825 24.825-24.825zm-187.89 49.651c-13.688 0-24.825-11.137-24.825-24.825s11.137-24.825 24.825-24.825 24.825 11.137 24.825 24.825-11.137 24.825-24.825 24.825zm74.793 23.641 2.248-31.776c.146-2.076-.576-4.119-1.994-5.642-1.419-1.523-3.406-2.388-5.487-2.388h-30.695c.622-2.791.96-5.687.96-8.662 0-2.974-.338-5.869-.959-8.659h32.979c3.903 0 7.153-2.993 7.475-6.883l3.103-37.552c3.748.642 7.594.995 11.523.995s7.774-.353 11.523-.995l3.103 37.552c.321 3.89 3.572 6.883 7.475 6.883h32.979c-.621 2.79-.959 5.685-.959 8.659 0 2.975.338 5.871.96 8.662h-30.695c-2.081 0-4.068.864-5.487 2.388-1.418 1.522-2.141 3.565-1.994 5.642l2.247 31.764c-6.149-1.473-12.557-2.275-19.151-2.275-6.486.001-12.913.791-19.154 2.287z"/><path d="m291.785 68.109c0-19.731-16.053-35.784-35.785-35.784s-35.785 16.053-35.785 35.784c0 19.732 16.053 35.785 35.785 35.785s35.785-16.052 35.785-35.785zm-56.57 0c0-11.46 9.324-20.784 20.785-20.784s20.785 9.324 20.785 20.784c0 11.461-9.324 20.785-20.785 20.785-11.461.001-20.785-9.324-20.785-20.785z"/><path d="m288.325 309.419c4.142 0 7.5-3.357 7.5-7.5v-17.495c0-4.143-3.358-7.5-7.5-7.5h-64.65c-4.142 0-7.5 3.357-7.5 7.5v17.495c0 4.143 3.358 7.5 7.5 7.5s7.5-3.357 7.5-7.5v-9.995h17.325v67.252c0 4.143 3.358 7.5 7.5 7.5s7.5-3.357 7.5-7.5v-67.252h17.325v9.995c0 4.142 3.358 7.5 7.5 7.5z"/></g></g></svg>