<?xml version="1.0" encoding="iso-8859-1"?>
<!-- Generator: Adobe Illustrator 19.0.0, SVG Export Plug-In . SVG Version: 6.00 Build 0)  -->
<svg version="1.1" id="Layer_1" xmlns="http://www.w3.org/2000/svg" xmlns:xlink="http://www.w3.org/1999/xlink" x="0px" y="0px"
	 viewBox="0 0 512 512" style="enable-background:new 0 0 512 512;" xml:space="preserve">
<rect x="121.129" y="8.258" style="fill:#9BC5FF;" class="chimney" width="33.032" height="55.054"/>
<rect x="371.613" y="63.312" style="fill:#F9A167;" class="boat-front-right" width="66.065" height="275.269"/>
<rect x="74.323" y="63.312" style="fill:#FCCC86;" class="boat-front" width="330.323" height="275.269"/>
<polygon style="fill:#CDE2FF;" class="boat-window-right" points="206.452,107.355 151.398,173.419 206.452,239.484 239.484,239.484 239.484,107.355 "/>
<rect x="118.366" y="107.355" style="fill:#FFFFFF;" class="boat-window" width="88.086" height="132.129"/>
<polygon style="fill:#CDE2FF;" class="boat-top-right" points="429.436,41.29 374.382,57.806 429.436,74.323 462.468,74.323 462.468,41.29 "/>
<rect x="49.559" y="41.29" class="boat-top" style="fill:#FFFFFF;" width="379.882" height="33.032"/>
<polygon style="fill:#9E5544;" class="door-right" points="371.613,107.355 338.581,360.602 404.645,360.602 404.645,107.355 "/>
<rect x="283.527" y="107.355" style="fill:#C84F36;" class="door" width="88.086" height="253.247"/>
<polygon style="fill:#555970;" class="boat-bottom-right" points="429.436,305.548 396.404,404.645 462.468,404.645 462.468,305.548 "/>
<rect x="49.559" y="305.548" style="fill:#5475AC;" class="boat-bottom" width="379.882" height="99.097"/>
<path style="fill:#69A8FF;" class="water-right" d="M503.74,362.749v140.993h-41.268l-44.043-82.581l44.043-82.581
	C471.798,353.203,486.794,362.749,503.74,362.749z"/>
<path style="fill:#9BC5FF;" class="water" width="current" d="M462.471,338.581v165.161H8.256V362.749c16.946,0,31.964-9.546,41.301-24.169
	c9.348,14.622,24.334,24.169,41.279,24.169c16.957,0,31.975-9.546,41.301-24.169c9.348,14.622,24.334,24.169,41.29,24.169
	c16.946,0,31.931-9.546,41.29-24.169c9.348,14.622,24.345,24.169,41.29,24.169c16.946,0,31.964-9.546,41.29-24.169
	c9.348,14.622,24.323,24.169,41.29,24.169c16.946,0,31.931-9.546,41.301-24.169c9.337,14.622,24.323,24.169,41.268,24.169
	C438.116,362.749,453.134,353.203,462.471,338.581z"/>
<g>
	<path style="fill:#FFFFFF;" class="water-clouds" d="M118.366,412.903H41.29c-4.561,0-8.258-3.697-8.258-8.258c0-4.561,3.697-8.258,8.258-8.258h77.075
		c4.561,0,8.258,3.697,8.258,8.258C126.624,409.206,122.926,412.903,118.366,412.903z"/>
	<path style="fill:#FFFFFF;" class="water-clouds" d="M195.441,412.903h-44.043c-4.561,0-8.258-3.697-8.258-8.258c0-4.561,3.697-8.258,8.258-8.258h44.043
		c4.561,0,8.258,3.697,8.258,8.258C203.699,409.206,200.002,412.903,195.441,412.903z"/>
	<path style="fill:#FFFFFF;" class="water-clouds" d="M470.705,445.935H393.63c-4.562,0-8.258-3.697-8.258-8.258s3.696-8.258,8.258-8.258h77.075
		c4.562,0,8.258,3.697,8.258,8.258S475.267,445.935,470.705,445.935z"/>
	<path style="fill:#FFFFFF;" class="water-clouds" d="M360.598,445.935h-44.043c-4.562,0-8.258-3.697-8.258-8.258s3.696-8.258,8.258-8.258h44.043
		c4.562,0,8.258,3.697,8.258,8.258S365.16,445.935,360.598,445.935z"/>
	<path style="fill:#FFFFFF;" class="water-clouds" d="M239.484,445.935h-88.086c-4.561,0-8.258-3.697-8.258-8.258s3.697-8.258,8.258-8.258h88.086
		c4.561,0,8.258,3.697,8.258,8.258S244.045,445.935,239.484,445.935z"/>
	<path style="fill:#FFFFFF;" class="water-clouds" d="M101.849,478.968H85.333c-4.561,0-8.258-3.697-8.258-8.258s3.697-8.258,8.258-8.258h16.516
		c4.561,0,8.258,3.697,8.258,8.258S106.41,478.968,101.849,478.968z"/>
</g>
<path class="boat-window-border" d="M239.484,99.097H118.366c-4.561,0-8.258,3.697-8.258,8.258v123.871h-2.753c-4.561,0-8.258,3.697-8.258,8.258
	s3.697,8.258,8.258,8.258h143.14c4.561,0,8.258-3.697,8.258-8.258s-3.697-8.258-8.258-8.258h-2.753V107.355
	C247.742,102.794,244.045,99.097,239.484,99.097z M126.624,115.613h104.602v115.613H126.624V115.613z"/>
<path d="M371.613,189.935c-4.562,0-8.258,3.697-8.258,8.258v16.516c0,4.561,3.696,8.258,8.258,8.258s8.258-3.697,8.258-8.258
	v-16.516C379.871,193.633,376.175,189.935,371.613,189.935z"/>
<!-- <path class="boat-border" d="M503.74,354.487c-12.863,0-24.777-6.695-33.014-18.435v-22.245h33.016c4.562,0,8.258-3.697,8.258-8.258
	c0-4.561-3.696-8.258-8.258-8.258h-13.763v-24.774c0-4.561-3.696-8.258-8.258-8.258c-4.562,0-8.258,3.697-8.258,8.258v24.774
	h-60.559V107.355c0-4.561-3.696-8.258-8.258-8.258H283.527c-4.562,0-8.258,3.697-8.258,8.258V297.29H38.538v-49.548h27.527v24.774
	c0,4.561,3.697,8.258,8.258,8.258c4.561,0,8.258-3.697,8.258-8.258V82.581h35.785c4.561,0,8.258-3.697,8.258-8.258
	c0-4.561-3.697-8.258-8.258-8.258H57.814V49.548h396.395v16.516H151.398c-4.561,0-8.258,3.697-8.258,8.258
	c0,4.561,3.697,8.258,8.258,8.258h278.022v189.935c0,4.561,3.696,8.258,8.258,8.258s8.258-3.697,8.258-8.258V82.581h16.533
	c4.562,0,8.258-3.697,8.258-8.258V41.29c0-4.561-3.696-8.258-8.258-8.258H162.42V16.516h2.753c4.561,0,8.258-3.697,8.258-8.258
	S169.733,0,165.172,0h-55.054c-4.561,0-8.258,3.697-8.258,8.258s3.697,8.258,8.258,8.258h2.753v16.516H49.556
	c-4.561,0-8.258,3.697-8.258,8.258v33.032c0,4.561,3.697,8.258,8.258,8.258h16.508v148.645H8.258c-4.561,0-8.258,3.697-8.258,8.258
	s3.697,8.258,8.258,8.258h13.763v49.548H8.258c-4.561,0-8.258,3.697-8.258,8.258c0,4.561,3.697,8.258,8.258,8.258h33.04v22.251
	c-8.239,11.737-20.162,18.43-33.039,18.43c-4.561,0-8.258,3.697-8.258,8.258v140.997c0,4.561,3.697,8.258,8.258,8.258H503.74
	c4.562,0,8.258-3.697,8.258-8.258V362.745C511.998,358.184,508.301,354.487,503.74,354.487z M129.387,16.516h16.516v16.516h-16.516
	C129.387,33.032,129.387,16.516,129.387,16.516z M291.785,115.613h104.602V297.29H291.785V115.613z M454.21,313.806v22.251
	c-8.238,11.737-20.165,18.43-33.052,18.43c-13.537,0-26.043-7.419-34.312-20.353c-1.517-2.373-4.139-3.809-6.954-3.81
	c-2.819,0-5.439,1.435-6.958,3.805c-8.283,12.938-20.803,20.359-34.344,20.359c-13.545,0-26.056-7.419-34.326-20.354
	c-1.518-2.374-4.141-3.81-6.958-3.81c-2.822,0.001-5.444,1.439-6.961,3.815c-8.254,12.932-20.77,20.349-34.337,20.349
	c-13.547,0-26.058-7.419-34.326-20.353c-1.517-2.373-4.139-3.809-6.955-3.81c-2.818,0-5.439,1.435-6.958,3.805
	c-8.283,12.938-20.802,20.359-34.343,20.359c-13.545,0-26.057-7.419-34.326-20.353c-1.517-2.374-4.141-3.81-6.958-3.81
	c-2.821,0.001-5.444,1.439-6.961,3.814c-8.256,12.932-20.771,20.349-34.338,20.349c-12.858,0-24.777-6.696-33.028-18.439v-22.244
	H454.21z M495.482,495.484H16.517V370.344c12.417-1.99,24.012-8.409,33.044-18.251c11.015,11.997,25.826,18.91,41.28,18.91
	c15.475,0,30.292-6.913,41.301-18.91c11.016,11.997,25.827,18.91,41.282,18.91c15.452,0,30.269-6.915,41.294-18.918
	c11.016,12.003,25.829,18.918,41.288,18.918c15.474,0,30.292-6.913,41.301-18.91c11.016,11.997,25.827,18.91,41.28,18.91
	c15.452,0,30.269-6.915,41.295-18.918c11.015,12.003,25.822,18.918,41.274,18.918c15.481,0,30.301-6.909,41.311-18.905
	c9.027,9.839,20.61,16.256,33.012,18.246v125.141H495.482z"/> -->
<g>
</g>
<g>
</g>
<g>
</g>
<g>
</g>
<g>
</g>
<g>
</g>
<g>
</g>
<g>
</g>
<g>
</g>
<g>
</g>
<g>
</g>
<g>
</g>
<g>
</g>
<g>
</g>
<g>
</g>
</svg>
