<svg xmlns="http://www.w3.org/2000/svg" width="21.262" height="26.104" viewBox="0 0 21.262 26.104"><defs><style>.apay{fill:#99c6e5;}.bpay{fill:#cce2f2;}.cpay{fill:#fff;}</style></defs><path class="apay" d="M14.016,0q-.035.232-.08.476C12.907,5.97,9.389,7.868,4.9,7.868H2.608a1.126,1.126,0,0,0-1.1.979L.339,16.577.007,18.768a.6.6,0,0,0,.578.7H4.643a.989.989,0,0,0,.964-.856l.04-.215.764-5.045.049-.277a.988.988,0,0,1,.964-.858h.607c3.931,0,7.009-1.661,7.908-6.467.376-2.008.181-3.684-.813-4.863A3.9,3.9,0,0,0,14.016,0Z" transform="translate(5.144 6.632)"/><path class="bpay" d="M11.43.384q-.236-.071-.485-.13t-.515-.1A12.22,12.22,0,0,0,8.413,0H2.3A.939.939,0,0,0,1.88.1a1.011,1.011,0,0,0-.542.759L.037,9.427,0,9.677A1.126,1.126,0,0,1,1.1,8.7H3.386c4.493,0,8.011-1.9,9.04-7.392.031-.163.057-.321.08-.476A5.367,5.367,0,0,0,11.66.459c-.075-.026-.152-.051-.23-.075Z" transform="translate(6.655 5.802)"/><path class="cpay" d="M7.992,6.66A1.008,1.008,0,0,1,8.534,5.9a.942.942,0,0,1,.421-.1h6.112a12.22,12.22,0,0,1,2.017.153q.264.044.515.1t.485.13l.231.074a5.449,5.449,0,0,1,.845.371A5.343,5.343,0,0,0,18.1,1.968C16.94.59,14.841,0,12.155,0h-7.8a1.129,1.129,0,0,0-1.1.98L.008,22.4a.689.689,0,0,0,.661.806H5.483l1.209-7.98Z"/></svg>