<svg xmlns="http://www.w3.org/2000/svg" width="41.803" height="11.778" viewBox="0 0 41.803 11.778"><defs><style>.a{fill:#fff;}.a,.b{fill-rule:evenodd;}.b{fill:#fec10e;}</style></defs><g transform="translate(0 0.202)"><path class="a" d="M9.3,3.651H6.434a1.9,1.9,0,0,0-.165-.962q-.256-.363-1.41-.363a3.431,3.431,0,0,0-1.485.209q-.363.21-.363.912a.916.916,0,0,0,.322.836,1.321,1.321,0,0,0,.61.167l.577.042q1.856.125,2.319.176a3.5,3.5,0,0,1,2.129.794,2.12,2.12,0,0,1,.619,1.313,9.368,9.368,0,0,1,.058,1.1,5.893,5.893,0,0,1-.264,2.058,2.616,2.616,0,0,1-2.15,1.514,12.438,12.438,0,0,1-2.142.134,12.974,12.974,0,0,1-3.352-.292A2.2,2.2,0,0,1,.206,9.831,7.013,7.013,0,0,1,0,7.8H2.863c0,.106,0,.186,0,.242q0,.758.428.975a1.654,1.654,0,0,0,.716.158H5.06a3.742,3.742,0,0,0,1.028-.084.844.844,0,0,0,.519-.509,1.978,1.978,0,0,0,.065-.56q0-.769-.551-.936A16.873,16.873,0,0,0,4.206,6.9Q2.833,6.8,2.3,6.71a2.537,2.537,0,0,1-1.874-1.1A4.4,4.4,0,0,1,.014,3.46,5.649,5.649,0,0,1,.236,1.705,1.919,1.919,0,0,1,.953.7,3.586,3.586,0,0,1,2.8.084Q3.743,0,4.888,0A10.955,10.955,0,0,1,7.457.21Q9.326.721,9.325,3.073q0,.193-.028.578Z" transform="translate(0 0)"/></g><g transform="translate(21.782 0.06)"><path class="a" d="M3.078,5.933H5a3.377,3.377,0,0,0,1.112-.144.839.839,0,0,0,.365-.611,5.231,5.231,0,0,0,.058-.908,3.8,3.8,0,0,0-.116-1.1.921.921,0,0,0-.8-.611q-.124-.017-.6-.017H3.078ZM0,11.638V0H5.734a6.3,6.3,0,0,1,1.8.2,2.816,2.816,0,0,1,1.9,1.847,7.258,7.258,0,0,1,.251,2.205,8.346,8.346,0,0,1-.276,2.545A2.584,2.584,0,0,1,7.14,8.556q-.2.034-1.716.06l-.511.017H3.078v3Z" transform="translate(0 0)"/></g><g transform="translate(30.246 0.06)"><path class="a" d="M7.241,7.359,5.8,2.315,4.4,7.359Zm.611,2.267H3.737l-.553,2.011H0L3.436,0H8.079l3.478,11.638H8.44Z" transform="translate(0)"/></g><path class="b" d="M7.606,1.534a4.021,4.021,0,0,1,3.147,1.527l.663-1.448A5.78,5.78,0,0,0,2.058,3.6H.764L0,5.267H1.664c-.012.155-.021.309-.021.467,0,.191.01.38.028.566H.836L.072,7.968H2.1a5.784,5.784,0,0,0,8.555,2.507V8.431a4.008,4.008,0,0,1-6.44-.464H8.454L9.218,6.3H3.588a4.293,4.293,0,0,1-.045-.614q0-.212.021-.419H9.691L10.455,3.6H4.094A4.044,4.044,0,0,1,7.606,1.534Z" transform="translate(10.056)"/></svg>