<svg xmlns="http://www.w3.org/2000/svg" width="48.553" height="14.883" viewBox="0 0 48.553 14.883"><defs><style>.a{fill:#fff;}</style></defs><path class="a" d="M19.238,33.645h3.929l2.459-14.421H21.7Z" transform="translate(-2.133 -18.977)"/><path class="a" d="M31.4,25.1c-1.373-.667-2.215-1.113-2.206-1.788,0-.6.712-1.241,2.259-1.241a7.1,7.1,0,0,1,3.294.718l.533-3.125a10.158,10.158,0,0,0-3.524-.6c-3.884,0-6.626,1.958-6.643,4.759-.021,2.072,1.958,3.229,3.444,3.916,1.53.706,2.045,1.157,2.038,1.788-.011.967-1.221,1.41-2.352,1.41a8.607,8.607,0,0,1-4.206-.986l-.551,3.227a12.416,12.416,0,0,0,4.378.77c4.132,0,6.815-1.934,6.845-4.926C34.717,27.375,33.67,26.126,31.4,25.1Z" transform="translate(0.017 -19.06)"/><path class="a" d="M41.68,19.238H38.643a1.958,1.958,0,0,0-2.059,1.2L30.747,33.646h4.128s.675-1.777.827-2.167h5.035c.117.506.479,2.161.479,2.161h3.648Zm-4.846,9.3C37,28.118,38.6,24,38.921,23.127c.53,2.485.014.074,1.175,5.408Z" transform="translate(3.69 -18.977)"/><path class="a" d="M21.688,19.238l-3.849,9.834-.41-2-1.378-6.626a1.646,1.646,0,0,0-1.783-1.218H7.93l-.05.3a16.512,16.512,0,0,1,4.129,1.583L15.5,33.638h4.16l6.188-14.394Z" transform="translate(-7.88 -18.98)"/></svg>