<svg id="visual" viewBox="0 0 960 150" xmlns="http://www.w3.org/2000/svg" xmlns:xlink="http://www.w3.org/1999/xlink" version="1.1">
<rect class="rect" x="0" y="0" width="960" height="300" fill="currentColor"></rect>
<path class="wave4" d="M0 106L20 106.2C40 106.3 80 106.7 120 107.3C160 108 200 109 240 111.3C280 113.7 320 117.3 360 120.3C400 123.3 440 125.7 480 127.2C520 128.7 560 129.3 600 125.7C640 122 680 114 720 108.8C760 103.7 800 101.3 840 104.8C880 108.3 920 117.7 940 122.3L960 127L960 0L940 0C920 0 880 0 840 0C800 0 760 0 720 0C680 0 640 0 600 0C560 0 520 0 480 0C440 0 400 0 360 0C320 0 280 0 240 0C200 0 160 0 120 0C80 0 40 0 20 0L0 0Z" fill="currentColor"></path>
<path class="wave3" d="M0 69L20 74.3C40 79.7 80 90.3 120 95.8C160 101.3 200 101.7 240 100.8C280 100 320 98 360 97.2C400 96.3 440 96.7 480 93.5C520 90.3 560 83.7 600 80.5C640 77.3 680 77.7 720 78.2C760 78.7 800 79.3 840 79C880 78.7 920 77.3 940 76.7L960 76L960 0L940 0C920 0 880 0 840 0C800 0 760 0 720 0C680 0 640 0 600 0C560 0 520 0 480 0C440 0 400 0 360 0C320 0 280 0 240 0C200 0 160 0 120 0C80 0 40 0 20 0L0 0Z" fill="currentColor"></path>
<path class="wave2" d="M0 49L20 49.8C40 50.7 80 52.3 120 56.8C160 61.3 200 68.7 240 71.3C280 74 320 72 360 67.7C400 63.3 440 56.7 480 53C520 49.3 560 48.7 600 51.8C640 55 680 62 720 60.7C760 59.3 800 49.7 840 50C880 50.3 920 60.7 940 65.8L960 71L960 0L940 0C920 0 880 0 840 0C800 0 760 0 720 0C680 0 640 0 600 0C560 0 520 0 480 0C440 0 400 0 360 0C320 0 280 0 240 0C200 0 160 0 120 0C80 0 40 0 20 0L0 0Z" fill="currentColor"></path>
<path class="wave1" d="M0 18L20 20.7C40 23.3 80 28.7 120 28.5C160 28.3 200 22.7 240 19.8C280 17 320 17 360 20.2C400 23.3 440 29.7 480 31.2C520 32.7 560 29.3 600 25.3C640 21.3 680 16.7 720 14.3C760 12 800 12 840 13.7C880 15.3 920 18.7 940 20.3L960 22L960 0L940 0C920 0 880 0 840 0C800 0 760 0 720 0C680 0 640 0 600 0C560 0 520 0 480 0C440 0 400 0 360 0C320 0 280 0 240 0C200 0 160 0 120 0C80 0 40 0 20 0L0 0Z" fill="currentColor"></path></svg>